<svg width="102" height="102" viewBox="0 0 102 102" fill="none" xmlns="http://www.w3.org/2000/svg">
<path fill-rule="evenodd" clip-rule="evenodd" d="M51 99C77.5097 99 99 77.5097 99 51C99 24.4903 77.5097 3 51 3C24.4903 3 3 24.4903 3 51C3 77.5097 24.4903 99 51 99ZM51 102C79.1665 102 102 79.1665 102 51C102 22.8335 79.1665 0 51 0C22.8335 0 0 22.8335 0 51C0 79.1665 22.8335 102 51 102Z" fill="white"/>
<path d="M31 33.8649H34.2162V42.9775H31V33.8649Z" fill="white"/>
<path d="M67.4504 33.8649H70.6667V42.9775H67.4504V33.8649Z" fill="white"/>
<path fill-rule="evenodd" clip-rule="evenodd" d="M30.9778 42.9313L32.8182 40.6041C35.9863 42.4205 41.8926 44.6591 48.5866 45.3105C55.2704 45.9609 62.5779 45.0164 68.7304 40.6794L70.6814 42.9393L52.7586 61.7779L69.3488 79.4741C69.9154 80.0785 69.8848 81.0277 69.2804 81.5943C68.6761 82.1609 67.7268 82.1303 67.1602 81.5259L50.6874 63.9549L33.9629 81.5339C33.3919 82.1341 32.4424 82.1578 31.8422 81.5868C31.242 81.0157 31.2184 80.0663 31.7894 79.4661L48.6322 61.7627L30.9778 42.9313ZM50.7034 59.5857L62.7149 46.9605C57.8884 48.4975 52.8907 48.7435 48.296 48.2964C44.5798 47.9347 41.0833 47.1162 38.0872 46.1284L50.7034 59.5857Z" fill="white"/>
<path fill-rule="evenodd" clip-rule="evenodd" d="M70.6667 21H31V33.8649H70.6667V21ZM51.7633 26.7894L51.1014 24.7522L50.4394 26.7894H48.2974L50.0304 28.0484L49.3684 30.0856L51.1014 28.8265L52.8343 30.0856L52.1723 28.0484L53.9053 26.7894H51.7633Z" fill="white"/>
</svg>
